<?xml version="1.0" encoding="UTF-8" standalone="no"?>
<!-- Created with Inkscape (http://www.inkscape.org/) -->

<svg
   xmlns:dc="http://purl.org/dc/elements/1.1/"
   xmlns:cc="http://creativecommons.org/ns#"
   xmlns:rdf="http://www.w3.org/1999/02/22-rdf-syntax-ns#"
   xmlns:svg="http://www.w3.org/2000/svg"
   xmlns="http://www.w3.org/2000/svg"
   xmlns:sodipodi="http://sodipodi.sourceforge.net/DTD/sodipodi-0.dtd"
   xmlns:inkscape="http://www.inkscape.org/namespaces/inkscape"
   id="svg2"
   version="1.1"
   inkscape:version="0.48.4 r9939"
   width="1863.0375"
   height="378.1"
   xml:space="preserve"
   sodipodi:docname="1280x270px_linesTRY.eps"><metadata
     id="metadata8"><rdf:RDF><cc:Work
         rdf:about=""><dc:format>image/svg+xml</dc:format><dc:type
           rdf:resource="http://purl.org/dc/dcmitype/StillImage" /><dc:title></dc:title></cc:Work></rdf:RDF></metadata><defs
     id="defs6" /><sodipodi:namedview
     pagecolor="#ffffff"
     bordercolor="#666666"
     borderopacity="1"
     objecttolerance="10"
     gridtolerance="10"
     guidetolerance="10"
     inkscape:pageopacity="0"
     inkscape:pageshadow="2"
     inkscape:window-width="640"
     inkscape:window-height="480"
     id="namedview4"
     showgrid="false"
     inkscape:zoom="0.2012842"
     inkscape:cx="931.51874"
     inkscape:cy="189.05"
     inkscape:window-x="51"
     inkscape:window-y="24"
     inkscape:window-maximized="0"
     inkscape:current-layer="g10" /><g
     id="g10"
     inkscape:groupmode="layer"
     inkscape:label="ink_ext_XXXXXX"
     transform="matrix(1.25,0,0,-1.25,0,378.1)"><g
       id="g12"
       transform="scale(0.101636,0.101636)"><path
         d="m 4.91797,4.91797 14654.60003,0 0,2966.32003 -14654.60003,0 0,-2966.32003 z"
         style="fill:#8ab740;fill-opacity:1;fill-rule:nonzero;stroke:none"
         id="path14" /><path
         d="m 4.91797,4.91797 14654.60003,0 0,2966.32003 -14654.60003,0 0,-2966.32003 z"
         style="fill:none;stroke:#8ab740;stroke-opacity:1;stroke-width:9.83903;stroke-linecap:butt;stroke-linejoin:miter;stroke-miterlimit:10;stroke-dasharray:none"
         id="path16" /><path
         d="m 1448.36,2750.84 c 39.45,-68.94 153.56,-138.93 124.62,-219.59 -33.32,-92.87 -39.74,-122.6 -32.98,-243.7 2.48,-44.48 49.35,-116.55 0.16,-189.01 -16.11,-23.73 -31.25,-31.77 -32.77,-72.54 -1.84,-49.46 24.24,-92.95 42.41,-136.52 18.93,-45.44 48.16,-84.21 23.33,-144.77 -44.66,-108.94 -52.58,-158.64 0.24,-252.28 50.98,-90.4 166.61,-145.61 261.69,-183.17 94.94,-37.49 190.32,-45.09 257.99,-69.35 165.47,-59.3 230.09,9.07 320.93,78.75 77.3,59.3 146.69,64.64 228.82,100.47 68.43,29.83 128.99,4.59 201.45,-24.79 164.75,-66.79 275,-211.18 452.14,-235.04 89.63,-12.06 152.1,37.06 226.2,81.57 91.09,54.72 139.18,48.86 221.71,101.32 69.9,44.42 168.84,77.38 242.52,106.59 87.5,34.67 109.25,62.16 186.7,6.35 123.28,-88.82 193.59,-88.68 269.17,-80.18 46.79,5.25 50.82,30.5 82.08,45.02 49.81,23.14 116.45,36.35 171.78,60.17 65,27.99 117.62,1.16 175.49,-23.37 77.23,-32.78 137.86,-43.81 222.85,-47.66 39.88,-1.81 145.43,46.79 189.8,78.88 44.38,32.07 58.63,77.19 104.01,110.95 71.37,53.12 88.08,117.44 139.29,191.44 20.85,30.13 109.53,111.7 137.9,131.16 28.27,19.4 72.07,14.44 109,12.63 46.44,-2.28 142.49,-29.37 173.18,13.14"
         style="fill:none;stroke:#4c6828;stroke-opacity:1;stroke-width:9.83903;stroke-linecap:butt;stroke-linejoin:miter;stroke-miterlimit:4;stroke-dasharray:29.5171,19.6781;stroke-dashoffset:0"
         id="path18" /><path
         d="m 574.328,1240.54 c 76.313,3.23 153.188,70.81 218.887,97.07 51.57,20.61 90.867,25.25 155.113,25.92 51.802,0.55 98.622,9.47 142.102,31.82 33.21,17.07 69.89,51.01 107.83,69.37 57.45,27.8 117.04,47.21 174.49,74.94 60.99,29.44 117.71,59.68 169.26,100.33 38.05,30 59.26,28.31 107.64,38.15 82.86,16.85 171.49,56.77 251.03,87.66 33.45,13 60.59,22.55 81.85,49.1 24.84,31 15.05,27.16 49.87,46.37 74.55,41.11 170.78,45.02 252.7,48.59 71.92,3.12 141.47,11.5 212.85,4.54 37.84,-3.68 105.96,-25.27 141.46,-9.84 47.17,20.51 44.27,84.71 84.61,114.92 45.19,33.78 111.68,7.68 158.6,28.94 144.54,65.54 180.63,64.71 251.47,102.04 64.1,33.8 120.67,20.24 190.39,43.26 126.09,41.62 262.83,77.73 394.62,100.82 132.94,23.28 259.74,44.18 392.51,66.69 91.49,15.51 178.37,68.76 268.53,98.38 109.45,35.95 227.42,59.43 341.35,74.77 56.46,7.6 101.01,25.01 157.06,44.78 47.03,16.59 72.99,36.09 108.73,58.27 36.01,22.37 82.08,16.95 135.82,23.39 94.86,11.38 188.83,31.11 283.82,42.04 96.38,11.07 171.65,8.84 267.97,4.8 59.59,-2.5 115.81,8.31 175,8.74 31.75,0.23 63.18,11.44 93.66,24.58 9.15,3.94 86.19,39.05 96.37,44.29"
         style="fill:none;stroke:#4c6828;stroke-opacity:1;stroke-width:9.83903;stroke-linecap:butt;stroke-linejoin:miter;stroke-miterlimit:4;stroke-dasharray:29.5171,19.6781;stroke-dashoffset:0"
         id="path20" /><path
         d="m 12705.8,2185.09 c 65.1,49.86 118.9,57.7 172.2,112.33 -3,4.51 28.4,50.73 -4.3,52.49 103.6,62.35 220.5,131.43 343.8,155.43 -3.3,5.97 56.8,28.21 53.8,34.16 102.9,14.5 154.4,-27.23 147.2,116.3 -64.2,22.14 -157.5,70.7 -196.1,134.4"
         style="fill:none;stroke:#4c6828;stroke-opacity:1;stroke-width:9.83903;stroke-linecap:butt;stroke-linejoin:miter;stroke-miterlimit:4;stroke-dasharray:29.5171,19.6781;stroke-dashoffset:0"
         id="path22" /><path
         d="m 5715.23,2357.28 c 217.56,-57.03 243.29,-196.78 236.2,-381.46 -4.84,-125.84 43.36,-237.65 123.18,-358.67 67.57,-102.44 30.84,-327.63 212.13,-281.04 79.92,20.53 201.55,51.49 279.48,67.05 21.94,4.37 111.22,42.85 149.74,68.6"
         style="fill:none;stroke:#4c6828;stroke-opacity:1;stroke-width:9.83903;stroke-linecap:butt;stroke-linejoin:miter;stroke-miterlimit:4;stroke-dasharray:29.5171,19.6781;stroke-dashoffset:0"
         id="path24" /><path
         d="m 6886.07,1471.76 c 48.32,-12.27 83.77,-42.94 102.73,-86.39 36.47,-83.59 -13.39,-56.82 -46.36,-117.56 -46.66,-85.99 -7.4,-209.28 -70.11,-290.341 -41.74,-53.957 -91.38,-16.715 -141.23,-71.106 -64.55,-70.429 -143.25,-134.441 -245.97,-129.226 -92.87,4.722 -127.39,-33.926 -222.16,-32.942 -99.4,1.024 -313.93,21.805 -313.26,13.157 -242.71,30.293 -408.61,10.546 -596.85,15.839 -218.95,6.149 -294.4,13.911 -451.77,-140.64 C 4852,584.352 4782.16,526.203 4721.16,497.473 4618.45,449.102 4534.73,403.48 4433.96,330.977 4294.16,230.402 4139.84,69.2852 3983.56,45.1016"
         style="fill:none;stroke:#4c6828;stroke-opacity:1;stroke-width:9.83903;stroke-linecap:butt;stroke-linejoin:miter;stroke-miterlimit:4;stroke-dasharray:29.5171,19.6781;stroke-dashoffset:0"
         id="path26" /><path
         d="m 9004.74,1855.48 c 0,-59.89 8.16,-122.19 -18.24,-177.44 -39.63,-82.95 -82.47,-83.4 -160.47,-108.57 -55.92,-18.03 -166.61,-49.78 -169.57,-133.97 -3.21,-91.64 159.44,-49.5 223.63,-68.35 42.93,-12.61 59.09,-26.52 105.83,-29.86 110.99,-7.92 231.66,28.75 340.97,6.57 78.92,-16.02 156.29,-51.93 244.53,-66.7 104.03,-17.4 188.39,-9.09 288.67,-49.57 83.73,-33.83 158.31,-40.82 251.61,-34.59 60.6,4.05 301.5,-79.09 353.8,-118.58 90.8,-68.51 185.3,-44.97 265.8,-103.475 53.7,-38.961 120.2,-97.652 174.6,-145.429 85.9,-75.536 410.8,-66.582 491.3,9.757 43.6,41.239 97.5,78.27 151.3,111.547 85.9,53.19 209.4,43.539 317.8,60.92 126,20.21 257.7,68.24 384.7,24.53 106.3,-36.61 417.1,-165.598 490.8,-180.071 76.3,-14.945 186.4,-32.086 264.5,-71.984 65.3,-33.363 128.6,-98.469 202.6,-131.656 93,-41.657 199.9,-8.825 289.2,-53.594 81.1,-40.75 160.6,-97.168 249,-123.508"
         style="fill:none;stroke:#4c6828;stroke-opacity:1;stroke-width:9.83903;stroke-linecap:butt;stroke-linejoin:miter;stroke-miterlimit:4;stroke-dasharray:none"
         id="path28" /><path
         d="m 11254.6,2399.91 c -29,60.45 -17.4,142.2 50.6,163.98 21.7,6.94 130.8,1.22 154.6,-10.83 4.2,-2.04 36.3,-53.55 44.2,-61.49 20.5,-20.64 45.1,-40.27 67.9,-57.07 58.2,-42.82 89.3,-102.19 106.4,-179.58 73,-329.6 -344,-297.22 -562.5,-348.78 -126.8,-29.96 -244.7,-88.16 -366.5,-109.69 -58.5,-10.37 -112.7,-28.55 -171.8,-40.82 -62.9,-13.04 -82.9,-48.19 -142.8,-64.13"
         style="fill:none;stroke:#4c6828;stroke-opacity:1;stroke-width:9.83903;stroke-linecap:butt;stroke-linejoin:miter;stroke-miterlimit:4;stroke-dasharray:none"
         id="path30" /><path
         d="m 8873.56,2790.2 c 22.13,-75.38 18.69,-166.99 49.17,-240 28.01,-67.08 99,-121.15 152.95,-175.24 50.11,-50.24 79.91,-47.83 105.3,-120.04 36.04,-102.49 -51.62,-236.81 125.04,-425.78 100.15,-107.13 240.94,-129.09 375.87,-118.12 20.31,1.64 133.82,18.06 231.33,108.39 52.64,48.75 193.98,70.8 308.28,45.91 110.5,-24.05 261.5,-203.69 332.8,-263.64 130.9,-109.86 214.5,-159.84 353.1,-86.97 281.1,147.94 674.3,281.06 936.1,416.21 132.6,68.36 223.3,59.42 356.4,126.46 287.8,144.87 295,66.08 517.5,96.68 100,13.74 179.5,34.94 275.4,65.78 95.9,30.85 177.7,21.81 270.7,-11.47 119.9,-42.91 203.6,-159.73 345.9,-164.17"
         style="fill:none;stroke:#4c6828;stroke-opacity:1;stroke-width:29.5171;stroke-linecap:butt;stroke-linejoin:miter;stroke-miterlimit:4;stroke-dasharray:none"
         id="path32" /><path
         d="m 8873.56,2790.2 c 22.13,-75.38 18.69,-166.99 49.17,-240 28.01,-67.08 99,-121.15 152.95,-175.24 50.11,-50.24 79.91,-47.83 105.3,-120.04 36.04,-102.49 -51.62,-236.81 125.04,-425.78 100.15,-107.13 240.94,-129.09 375.87,-118.12 20.31,1.64 133.82,18.06 231.33,108.39 52.64,48.75 193.98,70.8 308.28,45.91 110.5,-24.05 261.5,-203.69 332.8,-263.64 130.9,-109.86 214.5,-159.84 353.1,-86.97 281.1,147.94 674.3,281.06 936.1,416.21 132.6,68.36 223.3,59.42 356.4,126.46 287.8,144.87 295,66.08 517.5,96.68 100,13.74 179.5,34.94 275.4,65.78 95.9,30.85 177.7,21.81 270.7,-11.47 119.9,-42.91 203.6,-159.73 345.9,-164.17"
         style="fill:none;stroke:#8ab740;stroke-opacity:1;stroke-width:9.83903;stroke-linecap:butt;stroke-linejoin:miter;stroke-miterlimit:4;stroke-dasharray:none"
         id="path34" /><path
         d="m 7988.05,2760.68 c 70.77,-99.93 141.27,-204.76 217.53,-301.55 59.04,-74.95 149.29,-189.35 242.05,-222.51 57.21,-20.46 107.76,-6.5 165.19,-34.29 55.23,-26.73 107.02,-18.72 154.52,-62.03 61.43,-56.02 58.74,-84.03 135.74,-83.13 54.53,0.63 105.51,-14.37 158.42,-24.85 38.23,-7.58 80.64,-2.44 119.53,-2.19"
         style="fill:none;stroke:#4c6828;stroke-opacity:1;stroke-width:29.5171;stroke-linecap:butt;stroke-linejoin:miter;stroke-miterlimit:4;stroke-dasharray:none"
         id="path36" /><path
         d="m 7988.05,2760.68 c 70.77,-99.93 141.27,-204.76 217.53,-301.55 59.04,-74.95 149.29,-189.35 242.05,-222.51 57.21,-20.46 107.76,-6.5 165.19,-34.29 55.23,-26.73 107.02,-18.72 154.52,-62.03 61.43,-56.02 58.74,-84.03 135.74,-83.13 54.53,0.63 105.51,-14.37 158.42,-24.85 38.23,-7.58 80.64,-2.44 119.53,-2.19"
         style="fill:none;stroke:#8ab740;stroke-opacity:1;stroke-width:9.83903;stroke-linecap:butt;stroke-linejoin:miter;stroke-miterlimit:4;stroke-dasharray:none"
         id="path38" /></g></g></svg>